<?xml version="1.0" encoding="utf-8"?>
<!-- Generator: Adobe Illustrator 19.0.0, SVG Export Plug-In . SVG Version: 6.00 Build 0)  -->
<svg version="1.1" id="Capa_1" xmlns="http://www.w3.org/2000/svg" xmlns:xlink="http://www.w3.org/1999/xlink" x="0px" y="0px"
	 viewBox="-917.3 776.2 25 25" style="enable-background:new -917.3 776.2 25 25;" xml:space="preserve">
<style type="text/css">
	.st0{fill:#FFFFFF;}
</style>
<g>
	<g>
		<g>
			<path class="st0" d="M-897.3,784.8h-1.7v-3.6c0-2.6-2.1-4.7-4.7-4.7h-3.7c-2.6,0-4.7,2.1-4.7,4.7v3.6h-1.7
				c-0.5,0-0.9,0.4-0.9,0.9v8.6c0,3.6,2.9,6.5,6.5,6.5h4.9v-1.8h-4.9c-2.6,0-4.8-2.1-4.8-4.8v-7.8h14.9v5.2h1.8v-6.1
				C-896.4,785.2-896.8,784.8-897.3,784.8z M-900.8,784.8h-9.6v-3.6c0-1.6,1.3-3,3-3h3.7c1.6,0,3,1.3,3,3L-900.8,784.8L-900.8,784.8
				z"/>
			<path class="st0" d="M-903,801.2h-5.2c-3.8,0-6.8-3.1-6.8-6.8v-8.6c0-0.7,0.5-1.2,1.2-1.2h1.4v-3.3c0-2.8,2.3-5,5-5h3.7
				c2.8,0,5,2.3,5,5v3.3h1.4c0.7,0,1.2,0.5,1.2,1.2v6.4h-2.4v-5.2h-14.3v7.5c0,2.5,2,4.5,4.5,4.5h5.2V801.2z M-913.9,785.1
				c-0.3,0-0.6,0.3-0.6,0.6v8.6c0,3.4,2.8,6.2,6.2,6.2h4.6v-1.2h-4.6c-2.8,0-5.1-2.3-5.1-5.1v-8.1h15.5v5.2h1.2v-5.8
				c0-0.3-0.3-0.6-0.6-0.6h-2v-3.9c0-2.4-2-4.4-4.4-4.4h-3.7c-2.4,0-4.4,2-4.4,4.4v3.9H-913.9z M-900.5,785.1h-10.2v-3.9
				c0-1.8,1.5-3.3,3.3-3.3h3.7c1.8,0,3.3,1.5,3.3,3.3V785.1z M-910.1,784.5h9v-3.3c0-1.5-1.2-2.7-2.7-2.7h-3.7
				c-1.5,0-2.7,1.2-2.7,2.7V784.5z"/>
		</g>
		<g>
			<g>
				<path class="st0" d="M-894.9,794.7l-1.5-1.5c-0.1-0.1-0.3-0.1-0.5,0c-0.1,0.1-0.1,0.3,0,0.5l0.9,0.9h-4.6
					c-0.2,0-0.3,0.2-0.3,0.3c0,0.2,0.2,0.3,0.3,0.3h4.6l-0.9,0.9c-0.1,0.1-0.1,0.3,0,0.5c0.1,0.1,0.2,0.1,0.2,0.1s0.2,0,0.2-0.1
					l1.5-1.5C-894.8,795.1-894.8,794.8-894.9,794.7z"/>
				<path class="st0" d="M-896.7,797c-0.1,0-0.3-0.1-0.4-0.2c-0.2-0.2-0.2-0.6,0-0.8l0.6-0.6h-4.1c-0.3,0-0.6-0.3-0.6-0.6
					s0.3-0.6,0.6-0.6h4.1l-0.6-0.6c-0.2-0.2-0.2-0.6,0-0.8c0.1-0.1,0.3-0.2,0.4-0.2s0.3,0.1,0.4,0.2l1.5,1.5
					c0.1,0.1,0.2,0.3,0.2,0.4c0,0.1-0.1,0.3-0.2,0.4l-1.5,1.5C-896.3,797-896.5,797-896.7,797z M-900.6,794.8
					c-0.1,0-0.1,0.1-0.1,0.1s0.1,0.1,0.1,0.1h5.2l-1.3,1.3c0,0,0,0,0,0.1c0,0,0,0.1,0,0.1c0,0,0.1,0,0.1,0c0,0,0.1,0,0.1,0l0,0
					l1.5-1.5c0,0,0,0,0-0.1c0,0,0,0,0-0.1h0l-1.5-1.5c0,0-0.1,0-0.2,0c0,0,0,0.1,0,0.2l1.3,1.3H-900.6z"/>
			</g>
			<g>
				<path class="st0" d="M-898.6,796.3h-4.6l0.9-0.9c0.1-0.1,0.1-0.3,0-0.5c-0.1-0.1-0.3-0.1-0.5,0l-1.5,1.5c-0.1,0.1-0.1,0.3,0,0.5
					l1.5,1.5c0.1,0.1,0.2,0.1,0.2,0.1c0.1,0,0.2,0,0.2-0.1c0.1-0.1,0.1-0.3,0-0.5l-0.9-1h4.6c0.2,0,0.3-0.2,0.3-0.3
					C-898.3,796.5-898.4,796.3-898.6,796.3z"/>
				<path class="st0" d="M-902.5,798.8c-0.1,0-0.3-0.1-0.4-0.2l-1.5-1.5c-0.1-0.1-0.2-0.3-0.2-0.4s0.1-0.3,0.2-0.4l1.5-1.5
					c0.2-0.2,0.6-0.2,0.8,0c0.1,0.1,0.2,0.3,0.2,0.4c0,0.2-0.1,0.3-0.2,0.4l-0.6,0.6h4.1c0.3,0,0.6,0.3,0.6,0.6s-0.3,0.6-0.6,0.6
					h-4.1l0.6,0.6c0.1,0.1,0.2,0.2,0.2,0.4c0,0.1-0.1,0.3-0.2,0.4C-902.2,798.7-902.4,798.8-902.5,798.8z M-902.5,795
					C-902.6,795-902.6,795-902.5,795l-1.6,1.6c0,0,0,0,0,0.1s0,0.1,0,0.1l1.5,1.5c0,0,0.1,0,0.1,0c0,0,0.1,0,0.1,0l0,0
					c0,0,0-0.1,0-0.2l-1.3-1.3h5.2c0.1,0,0.1-0.1,0.1-0.1s-0.1-0.1-0.1-0.1h-5.2l1.3-1.3c0,0,0,0,0-0.1S-902.4,795.1-902.5,795
					C-902.5,795-902.5,795-902.5,795z"/>
			</g>
		</g>
	</g>
</g>
</svg>
