<?xml version="1.0" encoding="utf-8"?>
<!-- Generator: Adobe Illustrator 19.0.0, SVG Export Plug-In . SVG Version: 6.00 Build 0)  -->
<svg version="1.1" id="Capa_1" xmlns="http://www.w3.org/2000/svg" xmlns:xlink="http://www.w3.org/1999/xlink" x="0px" y="0px"
	 viewBox="218.9 236.8 25 25" style="enable-background:new 218.9 236.8 25 25;" xml:space="preserve">
<style type="text/css">
	.st0{fill:#FFFFFF;}
</style>
<g>
	<g>
		<g>
			<path class="st0" d="M242.4,246.8l-1.7-0.3c-0.2-0.6-0.4-1.1-0.7-1.7l1-1.4c0.4-0.6,0.4-1.4-0.2-2l-1.5-1.5
				c-0.3-0.3-0.7-0.4-1.1-0.4c-0.3,0-0.6,0.1-0.9,0.3l-1.4,1c-0.6-0.3-1.1-0.5-1.7-0.7l-0.3-1.7c-0.1-0.7-0.8-1.3-1.5-1.3h-2.2
				c-0.7,0-1.4,0.5-1.5,1.3l-0.3,1.8c-0.6,0.2-1.1,0.4-1.7,0.7l-1.4-1c-0.3-0.2-0.6-0.3-0.9-0.3c-0.4,0-0.8,0.2-1.1,0.4l-1.5,1.5
				c-0.5,0.5-0.6,1.4-0.2,2l1,1.4c-0.3,0.5-0.5,1.1-0.7,1.7l-1.7,0.3c-0.7,0.1-1.3,0.8-1.3,1.5v2.2c0,0.7,0.5,1.4,1.3,1.5l1.8,0.3
				c0.2,0.6,0.4,1.1,0.7,1.7l-1,1.4c-0.4,0.6-0.4,1.4,0.2,2l1.5,1.5c0.3,0.3,0.7,0.4,1.1,0.4c0.3,0,0.6-0.1,0.9-0.3l1.4-1
				c0.5,0.3,1.1,0.5,1.6,0.7l0.3,1.7c0.1,0.7,0.8,1.3,1.5,1.3h2.2c0.7,0,1.4-0.5,1.5-1.3l0.3-1.7c0.6-0.2,1.1-0.4,1.7-0.7l1.4,1
				c0.3,0.2,0.6,0.3,0.9,0.3l0,0c0.4,0,0.8-0.2,1.1-0.4l1.5-1.5c0.5-0.5,0.6-1.4,0.2-2l-1-1.4c0.3-0.5,0.5-1.1,0.7-1.7l1.7-0.3
				c0.7-0.1,1.3-0.8,1.3-1.5v-2.2C243.7,247.5,243.1,246.9,242.4,246.8z M242.3,250.4c0,0.1,0,0.1-0.1,0.1l-2.2,0.4
				c-0.3,0-0.5,0.2-0.6,0.5c-0.2,0.8-0.5,1.5-0.9,2.2c-0.1,0.2-0.1,0.5,0,0.8l1.3,1.8c0,0.1,0,0.1,0,0.2l-1.5,1.5c0,0-0.1,0-0.1,0
				c0,0-0.1,0-0.1,0l-1.8-1.3c-0.2-0.2-0.5-0.2-0.8,0c-0.7,0.4-1.4,0.7-2.2,0.9c-0.3,0.1-0.5,0.3-0.5,0.6l-0.4,2.2
				c0,0.1-0.1,0.1-0.1,0.1h-2.2c-0.1,0-0.1,0-0.1-0.1l-0.4-2.2c0-0.3-0.2-0.5-0.5-0.6c-0.7-0.2-1.4-0.5-2.1-0.9
				c-0.1-0.1-0.2-0.1-0.4-0.1c-0.1,0-0.3,0-0.4,0.1l-1.8,1.3c0,0-0.1,0-0.1,0c0,0-0.1,0-0.1,0l-1.5-1.5c0,0-0.1-0.1,0-0.2l1.3-1.8
				c0.2-0.2,0.2-0.5,0-0.8c-0.4-0.7-0.7-1.4-0.9-2.2c-0.1-0.3-0.3-0.5-0.6-0.5l-2.2-0.4c-0.1,0-0.1-0.1-0.1-0.1v-2.2
				c0-0.1,0-0.1,0.1-0.1l2.1-0.4c0.3,0,0.5-0.2,0.6-0.5c0.2-0.8,0.5-1.5,0.9-2.2c0.1-0.2,0.1-0.5,0-0.8l-1.3-1.8c0-0.1,0-0.1,0-0.2
				l1.5-1.5c0,0,0.1,0,0.1,0c0,0,0.1,0,0.1,0l1.8,1.3c0.2,0.2,0.5,0.2,0.8,0c0.7-0.4,1.4-0.7,2.2-0.9c0.3-0.1,0.5-0.3,0.5-0.6
				l0.4-2.2c0-0.1,0.1-0.1,0.1-0.1h2.2c0.1,0,0.1,0,0.1,0.1l0.4,2.1c0,0.3,0.2,0.5,0.5,0.6c0.8,0.2,1.5,0.5,2.2,0.9
				c0.2,0.1,0.5,0.1,0.8,0l1.8-1.3c0,0,0.1,0,0.1,0c0,0,0.1,0,0.1,0l1.5,1.5c0,0,0.1,0.1,0,0.2l-1.3,1.8c-0.2,0.2-0.2,0.5,0,0.8
				c0.4,0.7,0.7,1.4,0.9,2.2c0.1,0.3,0.3,0.5,0.6,0.5l2.2,0.4c0.1,0,0.1,0.1,0.1,0.1L242.3,250.4L242.3,250.4z"/>
			<path class="st0" d="M232.4,261.8h-2.2c-0.8,0-1.5-0.6-1.7-1.4l-0.3-1.6c-0.5-0.2-1-0.4-1.5-0.6l-1.4,1c-0.3,0.2-0.6,0.3-1,0.3
				c-0.5,0-0.9-0.2-1.2-0.5l-1.5-1.5c-0.6-0.6-0.7-1.5-0.2-2.2l0.9-1.3c-0.3-0.5-0.5-1-0.6-1.5l-1.6-0.3c-0.8-0.1-1.4-0.8-1.4-1.7
				v-2.2c0-0.8,0.6-1.5,1.4-1.7l1.6-0.3c0.2-0.5,0.4-1,0.6-1.5l-1-1.4c-0.5-0.7-0.4-1.6,0.2-2.2l1.5-1.5c0.3-0.3,0.7-0.5,1.2-0.5
				c0.4,0,0.7,0.1,1,0.3l1.3,1c0.5-0.3,1-0.5,1.5-0.6l0.3-1.6c0.1-0.8,0.8-1.4,1.7-1.4h2.2c0.8,0,1.5,0.6,1.7,1.4l0.3,1.6
				c0.5,0.2,1.1,0.4,1.6,0.6l1.3-1c0.3-0.2,0.6-0.3,1-0.3c0.5,0,0.9,0.2,1.2,0.5l1.5,1.5c0.6,0.6,0.7,1.5,0.2,2.2l-1,1.3
				c0.2,0.5,0.5,1,0.6,1.5l1.6,0.3c0.8,0.1,1.4,0.8,1.4,1.7v2.2c0,0.8-0.6,1.5-1.4,1.7l-1.6,0.3c-0.2,0.5-0.4,1-0.6,1.5l1,1.3
				c0.5,0.7,0.4,1.6-0.2,2.2l-1.5,1.5c-0.3,0.3-0.8,0.5-1.2,0.5c-0.4,0-0.7-0.1-1-0.3l-1.3-1c-0.5,0.2-1,0.5-1.5,0.6l-0.3,1.6
				C234,261.3,233.3,261.8,232.4,261.8z M226.8,257.8L226.8,257.8c0.6,0.3,1.1,0.5,1.7,0.7l0.1,0l0.3,1.8c0.1,0.6,0.7,1.1,1.3,1.1
				h2.2c0.7,0,1.2-0.5,1.3-1.1l0.3-1.8l0.1,0c0.6-0.2,1.1-0.4,1.6-0.7l0.1-0.1l1.5,1.1c0.2,0.2,0.5,0.2,0.8,0.2
				c0.4,0,0.7-0.1,0.9-0.4l1.5-1.5c0.5-0.5,0.5-1.2,0.1-1.7l-1.1-1.5l0.1-0.1c0.3-0.5,0.5-1.1,0.7-1.6l0-0.1l1.8-0.3
				c0.6-0.1,1.1-0.7,1.1-1.3v-2.2c0-0.7-0.5-1.2-1.1-1.3l0,0l-1.8-0.3l0-0.1c-0.2-0.6-0.4-1.1-0.7-1.6l-0.1-0.1l1.1-1.5
				c0.4-0.5,0.3-1.3-0.1-1.7l-1.5-1.5c-0.3-0.3-0.6-0.4-0.9-0.4c-0.3,0-0.5,0.1-0.8,0.2l-1.5,1.1l-0.1-0.1c-0.6-0.3-1.1-0.5-1.7-0.7
				l-0.1,0l-0.3-1.8c-0.1-0.6-0.7-1.1-1.3-1.1h-2.2c-0.7,0-1.2,0.5-1.3,1.1l-0.3,1.9l-0.1,0c-0.6,0.2-1.1,0.4-1.6,0.7l-0.1,0.1
				l-1.5-1.1c-0.2-0.2-0.5-0.2-0.8-0.2c-0.4,0-0.7,0.1-0.9,0.4l-1.5,1.5c-0.5,0.5-0.5,1.2-0.1,1.7l1.1,1.5l-0.1,0.1
				c-0.3,0.5-0.5,1.1-0.7,1.7l0,0.1l-1.8,0.3c-0.6,0.1-1.1,0.7-1.1,1.3v2.2c0,0.7,0.5,1.2,1.1,1.3l1.9,0.3l0,0.1
				c0.2,0.6,0.4,1.1,0.7,1.6l0.1,0.1l-1.1,1.5c-0.4,0.5-0.3,1.3,0.1,1.7l1.5,1.5c0.3,0.3,0.6,0.4,0.9,0.4c0.3,0,0.5-0.1,0.8-0.2
				L226.8,257.8z M232.4,260.5h-2.2c-0.2,0-0.3-0.1-0.3-0.3l-0.4-2.2c0-0.2-0.2-0.4-0.4-0.4c-0.7-0.2-1.5-0.5-2.2-0.9
				c-0.1,0-0.2-0.1-0.3-0.1c-0.1,0-0.2,0-0.3,0.1l-1.8,1.3c-0.1,0-0.1,0.1-0.2,0.1c-0.1,0-0.2,0-0.2-0.1l-1.5-1.5
				c-0.1-0.1-0.1-0.3,0-0.4l0,0l1.3-1.8c0.1-0.2,0.1-0.4,0-0.6c-0.4-0.7-0.7-1.4-0.9-2.2c-0.1-0.2-0.2-0.3-0.4-0.4l-2.2-0.4
				c-0.2,0-0.3-0.2-0.3-0.3v-2.2c0-0.2,0.1-0.3,0.3-0.3l2.1-0.4c0.2,0,0.4-0.2,0.4-0.4c0.2-0.8,0.5-1.5,0.9-2.2
				c0.1-0.2,0.1-0.4,0-0.6l-1.3-1.8c-0.1-0.1-0.1-0.3,0-0.4l1.5-1.5c0,0,0.1-0.1,0.2-0.1c0.1,0,0.1,0,0.2,0.1l1.8,1.3
				c0.2,0.1,0.4,0.1,0.6,0c0.7-0.4,1.4-0.7,2.2-0.9c0.2-0.1,0.3-0.2,0.4-0.4l0.4-2.2c0-0.2,0.2-0.3,0.3-0.3h2.2
				c0.2,0,0.3,0.1,0.3,0.3l0.4,2.1c0,0.2,0.2,0.4,0.4,0.4c0.8,0.2,1.6,0.5,2.3,0.9c0.2,0.1,0.4,0.1,0.6,0l1.8-1.3
				c0.1,0,0.1-0.1,0.2-0.1c0.1,0,0.2,0,0.2,0.1l1.5,1.5c0.1,0.1,0.1,0.3,0,0.4l0,0l-1.3,1.8c-0.1,0.2-0.1,0.4,0,0.6
				c0.4,0.7,0.7,1.4,0.9,2.2c0,0.2,0.2,0.3,0.4,0.4l2.2,0.4c0.2,0,0.3,0.2,0.3,0.3l0,2.2c0,0.2-0.1,0.3-0.3,0.3l-2.2,0.4
				c-0.2,0-0.4,0.2-0.4,0.4c-0.2,0.8-0.5,1.5-0.9,2.2c-0.1,0.2-0.1,0.4,0,0.6l1.3,1.8c0.1,0.1,0.1,0.3,0,0.4l-1.5,1.5
				c0,0-0.1,0.1-0.2,0.1c-0.1,0-0.1,0-0.2-0.1l-1.8-1.3c-0.2-0.1-0.4-0.1-0.6,0c-0.7,0.4-1.4,0.7-2.2,0.9c-0.2,0-0.3,0.2-0.4,0.4
				l-0.4,2.2C232.7,260.4,232.6,260.5,232.4,260.5z M230.3,260.1h2.1l0.4-2.1c0.1-0.3,0.3-0.6,0.6-0.7c0.7-0.2,1.5-0.5,2.1-0.9
				c0.3-0.2,0.7-0.2,1,0l1.8,1.2l1.5-1.5l-1.2-1.8c-0.2-0.3-0.2-0.7,0-1c0.4-0.7,0.7-1.4,0.9-2.1c0.1-0.3,0.4-0.6,0.7-0.6l2.1-0.4
				l0-2.1l-2.1-0.4c-0.3-0.1-0.6-0.3-0.7-0.6c-0.2-0.7-0.5-1.5-0.9-2.1c-0.2-0.3-0.2-0.7,0-1l1.2-1.8l-1.5-1.5l-1.7,1.3
				c-0.3,0.2-0.7,0.2-1,0c-0.7-0.4-1.4-0.7-2.2-0.9c-0.3-0.1-0.6-0.4-0.6-0.7l-0.4-2.1h-2.1l-0.4,2.1c-0.1,0.3-0.3,0.6-0.6,0.7
				c-0.7,0.2-1.4,0.5-2.1,0.9c-0.3,0.2-0.7,0.2-1,0l-1.7-1.2l-1.5,1.5l1.3,1.8c0.2,0.3,0.2,0.7,0,0.9c-0.4,0.6-0.7,1.4-0.9,2.1
				c-0.1,0.3-0.4,0.6-0.7,0.6l-2.1,0.4v2.1l2.1,0.4c0.3,0.1,0.6,0.3,0.7,0.6c0.2,0.7,0.5,1.4,0.9,2.1c0.2,0.3,0.2,0.7,0,1l-1.2,1.7
				l1.5,1.5l1.8-1.3c0.1-0.1,0.3-0.2,0.5-0.2c0.2,0,0.3,0,0.4,0.1c0.7,0.4,1.4,0.7,2.1,0.8c0.3,0.1,0.6,0.4,0.6,0.7L230.3,260.1z"/>
		</g>
		<g>
			<path class="st0" d="M231.4,244c-2.9,0-5.3,2.4-5.3,5.3c0,2.9,2.4,5.3,5.3,5.3s5.3-2.4,5.3-5.3C236.7,246.4,234.3,244,231.4,244z
				 M231.4,253.3c-2.2,0-3.9-1.8-3.9-3.9s1.8-3.9,3.9-3.9s3.9,1.8,3.9,3.9S233.5,253.3,231.4,253.3z"/>
			<path class="st0" d="M231.4,254.8c-3,0-5.5-2.5-5.5-5.5c0-3,2.5-5.5,5.5-5.5c3,0,5.5,2.5,5.5,5.5
				C236.9,252.4,234.4,254.8,231.4,254.8z M231.4,244.2c-2.8,0-5.1,2.3-5.1,5.1c0,2.8,2.3,5.1,5.1,5.1c2.8,0,5.1-2.3,5.1-5.1
				C236.5,246.5,234.2,244.2,231.4,244.2z M231.4,253.5c-2.3,0-4.1-1.8-4.1-4.1c0-2.3,1.8-4.1,4.1-4.1c2.3,0,4.1,1.8,4.1,4.1
				C235.5,251.6,233.6,253.5,231.4,253.5z M231.4,245.6c-2.1,0-3.7,1.7-3.7,3.7c0,2.1,1.7,3.7,3.7,3.7c2.1,0,3.7-1.7,3.7-3.7
				C235.1,247.3,233.4,245.6,231.4,245.6z"/>
		</g>
	</g>
</g>
</svg>
