<?xml version="1.0" encoding="utf-8"?>
<!-- Generator: Adobe Illustrator 19.0.0, SVG Export Plug-In . SVG Version: 6.00 Build 0)  -->
<svg version="1.1" id="Layer_1" xmlns="http://www.w3.org/2000/svg" xmlns:xlink="http://www.w3.org/1999/xlink" x="0px" y="0px"
	 viewBox="-839 756.9 25 25" style="enable-background:new -839 756.9 25 25;" xml:space="preserve">
<style type="text/css">
	.st0{fill:#A41D21;}
	.st1{fill:#86B241;}
</style>
<g>
	<g>
		<g id="XMLID_2_">
			<path class="st0" d="M-818.1,761.7c-0.1,0-0.2,0-0.4,0v0.2l-7.1,7.9c-0.1,0.1-0.2,0.3-0.2,0.5v7.9l-2.5,1.4v-9.3
				c0-0.2-0.1-0.4-0.2-0.5l-7.1-7.8v-2.3h15c0-0.2-0.1-0.3-0.1-0.5c0-0.4,0.1-0.8,0.2-1.1h-16c-0.4,0-0.8,0.4-0.8,0.8v3.4
				c0,0.2,0.1,0.4,0.2,0.5l7.1,7.8V781c0,0.3,0.2,0.5,0.4,0.7c0.1,0.1,0.3,0.1,0.4,0.1s0.3,0,0.4-0.1l4.1-2.4
				c0.3-0.1,0.4-0.4,0.4-0.7v-8.1l7.1-7.8c0.1-0.1,0.2-0.3,0.2-0.5v-0.8C-817.2,761.6-817.6,761.7-818.1,761.7z"/>
			<path class="st0" d="M-829.1,781.9c-0.1,0-0.3,0-0.4-0.1c-0.3-0.2-0.4-0.4-0.4-0.8v-10.4l-7.1-7.8c-0.1-0.2-0.2-0.4-0.2-0.6v-3.4
				c0-0.5,0.4-0.9,0.9-0.9h16.1v0.1c-0.2,0.3-0.2,0.7-0.2,1.1c0,0.2,0,0.3,0,0.5v0.1h-15v2.2l7.1,7.8c0.1,0.2,0.2,0.4,0.2,0.6v9.2
				l2.4-1.4v-7.9c0-0.2,0.1-0.4,0.2-0.6l7.1-7.8v-0.2h0.1c0.1,0,0.2,0,0.4,0c0.4,0,0.8-0.1,1.2-0.3l0.1-0.1v0.9
				c0,0.2-0.1,0.4-0.2,0.6l-7.1,7.8v8c0,0.3-0.2,0.6-0.4,0.8l-4.1,2.4C-828.8,781.9-829,781.9-829.1,781.9z M-836.5,758.1
				c-0.4,0-0.7,0.3-0.7,0.7v3.4c0,0.2,0.1,0.4,0.2,0.5l7.2,7.9V781c0,0.3,0.1,0.5,0.4,0.6c0.1,0.1,0.2,0.1,0.4,0.1
				c0.1,0,0.3,0,0.4-0.1l4.1-2.4c0.2-0.1,0.4-0.4,0.4-0.6v-8.1l0,0l7.1-7.8c0.1-0.1,0.2-0.3,0.2-0.5v-0.7c-0.4,0.2-0.8,0.3-1.2,0.3
				c-0.1,0-0.2,0-0.3,0v0.1l-7.2,7.9c-0.1,0.1-0.2,0.3-0.2,0.5v8l-2.7,1.5v-9.5c0-0.2-0.1-0.4-0.2-0.5l-7.2-7.9v-2.4h15
				c0-0.2,0-0.3,0-0.4c0-0.4,0.1-0.7,0.2-1H-836.5z"/>
		</g>
	</g>
</g>
<circle id="XMLID_1_" class="st1" cx="-818.9" cy="760" r="3.1"/>
</svg>
