<?xml version="1.0" encoding="utf-8"?>
<!-- Generator: Adobe Illustrator 19.0.0, SVG Export Plug-In . SVG Version: 6.00 Build 0)  -->
<svg version="1.1" id="Layer_1" xmlns="http://www.w3.org/2000/svg" xmlns:xlink="http://www.w3.org/1999/xlink" x="0px" y="0px"
	 viewBox="-277.3 762.5 25 25" style="enable-background:new -277.3 762.5 25 25;" xml:space="preserve">
<style type="text/css">
	.st0{fill:#A41D24;}
</style>
<g>
	<path class="st0" d="M-253,778.7c-1.4-1.1-2.9-2-3.6-2.3v-1.8c0.3-0.4,0.5-0.8,0.5-1.3v-2.7c0-1.7-1.4-3.1-3.1-3.1h-0.6
		c-1.7,0-3.1,1.4-3.1,3.1v2.7c0,0.5,0.2,1,0.5,1.3v1.8c-0.7,0.4-2.2,1.2-3.6,2.3c-0.5,0.4-0.7,1-0.7,1.6v1.8c0,0.4,0.3,0.7,0.7,0.7
		c0.4,0,0.7-0.3,0.7-0.7v-1.8c0-0.2,0.1-0.3,0.2-0.4c1.6-1.3,3.3-2.2,3.6-2.3c0.3-0.1,0.5-0.4,0.5-0.8v-2.6c0-0.2-0.1-0.5-0.3-0.6
		c-0.1-0.1-0.2-0.2-0.2-0.4v-2.7c0-0.9,0.7-1.7,1.7-1.7h0.6c0.9,0,1.7,0.7,1.7,1.7v2.7c0,0.2-0.1,0.3-0.2,0.4
		c-0.2,0.1-0.3,0.4-0.3,0.6v2.6c0,0.3,0.2,0.6,0.5,0.8c0.3,0.2,2.1,1,3.6,2.3c0.1,0.1,0.2,0.3,0.2,0.4v1.8c0,0.4,0.3,0.7,0.7,0.7
		c0.4,0,0.7-0.3,0.7-0.7v-1.8C-252.3,779.6-252.6,779.1-253,778.7z"/>
</g>
<g>
	<path class="st0" d="M-266.7,774.4h-9.2c-0.4,0-0.7-0.3-0.7-0.7s0.3-0.7,0.7-0.7h9.2c0.4,0,0.7,0.3,0.7,0.7
		S-266.3,774.4-266.7,774.4z"/>
</g>
<g>
	<path class="st0" d="M-268.8,777.9c-0.2,0-0.4-0.1-0.5-0.2c-0.3-0.3-0.3-0.7,0-1l3-3c-1.1-1.1-2.5-2.6-2.8-2.8
		c-0.3-0.2-0.4-0.7-0.1-1c0.2-0.3,0.7-0.4,1-0.1c0.5,0.4,3.1,3.1,3.4,3.4c0.3,0.3,0.3,0.7,0,1l-3.5,3.5
		C-268.5,777.8-268.6,777.9-268.8,777.9z"/>
</g>
<g>
	<path class="st0" d="M-276.6,782.9c-0.4,0-0.7-0.3-0.7-0.7v-14.3c0-0.4,0.3-0.7,0.7-0.7c0.4,0,0.7,0.3,0.7,0.7v14.3
		C-275.9,782.5-276.2,782.9-276.6,782.9z"/>
</g>
</svg>
