<?xml version="1.0" encoding="utf-8"?>
<!-- Generator: Adobe Illustrator 19.0.0, SVG Export Plug-In . SVG Version: 6.00 Build 0)  -->
<svg version="1.1" id="Capa_1" xmlns="http://www.w3.org/2000/svg" xmlns:xlink="http://www.w3.org/1999/xlink" x="0px" y="0px"
	 viewBox="-1059.1 1510.7 25.4 25.4" style="enable-background:new -1059.1 1510.7 25.4 25.4;" xml:space="preserve">
<style type="text/css">
	.st0{fill:#A41D22;stroke:#A41D22;stroke-width:0.4;stroke-miterlimit:10;}
</style>
<g>
	<g>
		<path class="st0" d="M-1037.6,1514.6c-2.4-2.4-5.5-3.7-8.8-3.7c-3.3,0-6.5,1.3-8.8,3.7c-2.4,2.4-3.7,5.5-3.7,8.8
			c0,3.3,1.3,6.5,3.7,8.8c2.4,2.4,5.5,3.7,8.8,3.7c3.3,0,6.5-1.3,8.8-3.7c2.4-2.4,3.7-5.5,3.7-8.8
			C-1033.9,1520.1-1035.2,1516.9-1037.6,1514.6z M-1038.6,1531.2c-2.1,2.1-4.9,3.2-7.8,3.2c-2.9,0-5.7-1.2-7.8-3.2
			c-4.3-4.3-4.3-11.3,0-15.7c2.1-2.1,4.9-3.2,7.8-3.2c2.9,0,5.7,1.2,7.8,3.2C-1034.2,1519.9-1034.2,1526.9-1038.6,1531.2z"/>
		<path class="st0" d="M-1040.9,1517.9c-0.3-0.3-0.7-0.3-1,0l-4.5,4.5l-4.5-4.5c-0.3-0.3-0.7-0.3-1,0c-0.3,0.3-0.3,0.7,0,1l4.5,4.5
			l-4.5,4.5c-0.3,0.3-0.3,0.7,0,1c0.1,0.1,0.3,0.2,0.5,0.2c0.2,0,0.4-0.1,0.5-0.2l4.5-4.5l4.5,4.5c0.1,0.1,0.3,0.2,0.5,0.2
			c0.2,0,0.4-0.1,0.5-0.2c0.3-0.3,0.3-0.7,0-1l-4.5-4.5l4.5-4.5C-1040.6,1518.6-1040.6,1518.2-1040.9,1517.9z"/>
	</g>
</g>
</svg>
