<?xml version="1.0" encoding="utf-8"?>
<!-- Generator: Adobe Illustrator 19.0.0, SVG Export Plug-In . SVG Version: 6.00 Build 0)  -->
<svg version="1.1" id="Layer_1" xmlns="http://www.w3.org/2000/svg" xmlns:xlink="http://www.w3.org/1999/xlink" x="0px" y="0px"
	 viewBox="-511 512 512 512" style="enable-background:new -511 512 512 512;" xml:space="preserve">
<style type="text/css">
	.st0{fill:#A41D22;}
</style>
<path class="st0" d="M-321.5,575.2v39.4c0,5,4,9,9,9h211.9c5,0,9,4,9,9v269.4c0,5-4,9-9,9h-211.9c-5,0-9,4-9,9v39.4c0,5,4,9,9,9H-43
	c5,0,9-4,9-9V575.2c0-5-4-9-9-9h-269.4C-317.5,566.2-321.5,570.2-321.5,575.2z M-264,699.3v30.4c0,5-4,9-9,9H-485c-5,0-9,4-9,9v39.4
	c0,5,4,9,9,9H-273c5,0,9,4,9,9v30.4c0,7.4,8.5,11.7,14.5,7.2l90.9-68.1c4.8-3.6,4.8-10.8,0-14.5l-90.9-68.2
	C-255.5,687.6-264,691.8-264,699.3z"/>
</svg>
