<?xml version="1.0" encoding="utf-8"?>
<!-- Generator: Adobe Illustrator 19.0.0, SVG Export Plug-In . SVG Version: 6.00 Build 0)  -->
<svg version="1.1" id="Capa_1" xmlns="http://www.w3.org/2000/svg" xmlns:xlink="http://www.w3.org/1999/xlink" x="0px" y="0px"
	 viewBox="-848.7 619.2 25 25" style="enable-background:new -848.7 619.2 25 25;" xml:space="preserve">
<style type="text/css">
	.st0{fill:#A41D22;}
</style>
<g>
	<g>
		<path class="st0" d="M-824.7,623.5l-3.6-4.1c-0.1-0.1-0.2-0.2-0.4-0.2s-0.3,0.1-0.4,0.2l-3.6,4.1c-0.1,0.1-0.2,0.4-0.1,0.5
			c0.1,0.2,0.3,0.3,0.5,0.3h2v6.6c0,0.3,0.2,0.5,0.5,0.5h2c0.3,0,0.5-0.2,0.5-0.5v-6.6h2c0.2,0,0.4-0.1,0.5-0.3
			C-824.5,623.8-824.5,623.6-824.7,623.5z"/>
	</g>
</g>
<g>
	<path class="st0" d="M-830.5,633.6v2.7l-2.4-2.4c0-0.1-0.1-0.1-0.1-0.1c-0.2-0.2-0.5-0.3-0.8-0.3c-0.3,0-0.6,0.1-0.8,0.3
		c0,0-0.1,0.1-0.1,0.1l-8.2,8.2h-2.8c0,0-0.1,0-0.1-0.1v-12.9c0,0,0-0.1,0.1-0.1h12.9c0.3,0,0.6-0.3,0.6-0.6v-1
		c0-0.3-0.3-0.6-0.6-0.6h-14.5c-0.3,0-0.6,0.3-0.6,0.6v15.6c0,0.6,0.5,1.1,1.1,1.1h4.3h0h13c0.6,0,1.1-0.5,1.1-1.1v-4.3v0v-5.3
		c0-0.3-0.3-0.6-0.6-0.6h-1C-830.3,633-830.5,633.2-830.5,633.6z M-830.5,642C-830.5,642-830.6,642.1-830.5,642l-9.3,0.1l6.1-6.1
		l3.2,3.2V642z"/>
	<circle class="st0" cx="-841.3" cy="633.4" r="2.2"/>
</g>
</svg>
