<?xml version="1.0" encoding="utf-8"?>
<!-- Generator: Adobe Illustrator 19.0.0, SVG Export Plug-In . SVG Version: 6.00 Build 0)  -->
<svg version="1.1" id="Layer_1" xmlns="http://www.w3.org/2000/svg" xmlns:xlink="http://www.w3.org/1999/xlink" x="0px" y="0px"
	 viewBox="-805.1 792.3 25 25" style="enable-background:new -805.1 792.3 25 25;" xml:space="preserve">
<style type="text/css">
	.st0{fill:#A41D22;}
</style>
<g>
	<g>
		<path class="st0" d="M-805,811l0,5.1c0,0.3,0.1,0.6,0.3,0.8c0.2,0.2,0.5,0.3,0.8,0.3l5.1,0c0.3,0,0.6-0.1,0.8-0.3l17.7-17.7
			c0.4-0.4,0.4-1.1,0-1.6l-5.1-5.1c-0.4-0.4-1.1-0.4-1.6,0l-3.5,3.6l-14.1,14.1C-804.9,810.5-805,810.8-805,811z M-786.3,794.9
			l3.6,3.6l-2,2l-3.6-3.6C-788.3,796.9-786.3,794.9-786.3,794.9z M-802.9,811.5l13-13l3.6,3.6l-13,13l-3.6,0
			C-802.9,815.1-802.9,811.5-802.9,811.5z"/>
	</g>
</g>
</svg>
