<?xml version="1.0" encoding="utf-8"?>
<!-- Generator: Adobe Illustrator 19.0.0, SVG Export Plug-In . SVG Version: 6.00 Build 0)  -->
<svg version="1.1" id="Capa_1" xmlns="http://www.w3.org/2000/svg" xmlns:xlink="http://www.w3.org/1999/xlink" x="0px" y="0px"
	 viewBox="-813.2 755.6 25 25" style="enable-background:new -813.2 755.6 25 25;" xml:space="preserve">
<style type="text/css">
	.st0{fill:#A41D21;}
</style>
<g>
	<g>
		<g>
			<path class="st0" d="M-790.9,755.6h-19.8c-0.5,0-0.8,0.4-0.8,0.8v3.5c0,0.2,0.1,0.4,0.2,0.6l7.5,8.2v10.9c0,0.3,0.2,0.6,0.4,0.7
				c0.1,0.1,0.3,0.1,0.4,0.1c0.1,0,0.3,0,0.4-0.1l4.3-2.5c0.3-0.1,0.4-0.4,0.4-0.7v-8.4l7.5-8.2c0.1-0.2,0.2-0.4,0.2-0.6v-3.5
				C-790,755.9-790.4,755.6-790.9,755.6z M-791.7,759.6l-7.5,8.2c-0.1,0.2-0.2,0.4-0.2,0.6v8.3l-2.6,1.5v-9.8c0-0.2-0.1-0.4-0.2-0.6
				l-7.5-8.2v-2.4h18.1L-791.7,759.6L-791.7,759.6z"/>
			<path class="st0" d="M-802.9,780.6c-0.2,0-0.3,0-0.5-0.1c-0.3-0.2-0.5-0.5-0.5-0.8v-10.8l-7.4-8.2c-0.1-0.2-0.2-0.4-0.2-0.6v-3.5
				c0-0.5,0.4-0.9,0.9-0.9h19.8c0.5,0,0.9,0.4,0.9,0.9v3.5c0,0.2-0.1,0.4-0.2,0.6l-7.4,8.2v8.4c0,0.3-0.2,0.6-0.5,0.8l-4.3,2.5
				C-802.5,780.6-802.7,780.6-802.9,780.6z M-810.5,755.6c-0.4,0-0.8,0.3-0.8,0.8v3.5c0,0.2,0.1,0.4,0.2,0.5l7.5,8.2v11
				c0,0.3,0.1,0.5,0.4,0.7c0.1,0.1,0.2,0.1,0.4,0.1c0.1,0,0.3,0,0.4-0.1l4.3-2.5c0.2-0.1,0.4-0.4,0.4-0.7v-8.5l0,0l7.5-8.2
				c0.1-0.1,0.2-0.3,0.2-0.5v-3.5c0-0.4-0.3-0.8-0.8-0.8H-810.5z M-802.1,778.3v-9.9c0-0.2-0.1-0.4-0.2-0.5l-7.5-8.2v-2.5h18.2v2.4
				h0.1l-0.1,0.1l-7.5,8.2c-0.1,0.1-0.2,0.3-0.2,0.5v8.3L-802.1,778.3z M-809.6,759.6l7.4,8.2c0.1,0.2,0.2,0.4,0.2,0.6v9.6l2.5-1.4
				v-8.2c0-0.2,0.1-0.4,0.2-0.6l7.4-8.2v-2.3h-17.9L-809.6,759.6L-809.6,759.6z"/>
		</g>
	</g>
</g>
</svg>
