<?xml version="1.0" encoding="utf-8"?>
<!-- Generator: Adobe Illustrator 19.0.0, SVG Export Plug-In . SVG Version: 6.00 Build 0)  -->
<svg version="1.1" id="Capa_1" xmlns="http://www.w3.org/2000/svg" xmlns:xlink="http://www.w3.org/1999/xlink" x="0px" y="0px"
	 viewBox="-1886.9 2264.9 25 25" style="enable-background:new -1886.9 2264.9 25 25;" xml:space="preserve">
<style type="text/css">
	.st0{fill:#BABABA;}
</style>
<path class="st0" d="M-1877.9,2276.1v2.8c0,0.3,0.3,0.6,0.6,0.6h2.4v2.4c0,0.3,0.3,0.6,0.6,0.6h2.8c0.3,0,0.6-0.3,0.6-0.6v-2.4h2.4
	c0.3,0,0.6-0.3,0.6-0.6v-2.8c0-0.3-0.3-0.6-0.6-0.6h-2.4v-2.4c0-0.3-0.3-0.6-0.6-0.6h-2.8c-0.3,0-0.6,0.3-0.6,0.6v2.4h-2.4
	C-1877.6,2275.5-1877.9,2275.8-1877.9,2276.1z M-1876.6,2276.7h2.4c0.3,0,0.6-0.3,0.6-0.6v-2.4h1.7v2.4c0,0.3,0.3,0.6,0.6,0.6h2.4
	v1.7h-2.4c-0.3,0-0.6,0.3-0.6,0.6v2.4h-1.7v-2.4c0-0.3-0.3-0.6-0.6-0.6h-2.4V2276.7z M-1885.5,2281.4
	C-1885.5,2281.5-1885.5,2281.5-1885.5,2281.4C-1885.5,2281.5-1885.5,2281.5-1885.5,2281.4v7.9c0,0.3,0.3,0.6,0.6,0.6
	c0.4,0,0.6-0.3,0.6-0.6v-7.4h2v2.7c0,1.3,1,2.3,2.3,2.3h14.4c1.3,0,2.3-1,2.3-2.3v-14.4c0-1.3-1-2.3-2.3-2.3h-14.4
	c-1.3,0-2.3,1-2.3,2.3v2.7h-2v-7.4c0-0.3-0.3-0.6-0.6-0.6c-0.4,0-0.6,0.3-0.6,0.6v7.9l0,0l0,0V2281.4z M-1881,2270.4
	c0-0.6,0.5-1.1,1.1-1.1h14.4c0.6,0,1.1,0.5,1.1,1.1v14.4c0,0.6-0.5,1.1-1.1,1.1h-14.4c-0.6,0-1.1-0.5-1.1-1.1V2270.4z
	 M-1884.3,2274.3h2v6.5h-2V2274.3z"/>
</svg>
