<?xml version="1.0" encoding="utf-8"?>
<!-- Generator: Adobe Illustrator 19.0.0, SVG Export Plug-In . SVG Version: 6.00 Build 0)  -->
<svg version="1.1" id="Capa_1" xmlns="http://www.w3.org/2000/svg" xmlns:xlink="http://www.w3.org/1999/xlink" x="0px" y="0px"
	 viewBox="-1130.9 1509.9 25 25" style="enable-background:new -1130.9 1509.9 25 25;" xml:space="preserve">
<style type="text/css">
	.st0{fill:#A41D22;}
</style>
<path class="st0" d="M-1121.9,1521.1v2.9c0,0.3,0.3,0.6,0.6,0.6h2.4v2.4c0,0.3,0.3,0.6,0.6,0.6h2.9c0.3,0,0.6-0.3,0.6-0.6v-2.4h2.4
	c0.3,0,0.6-0.3,0.6-0.6v-2.9c0-0.3-0.3-0.6-0.6-0.6h-2.4v-2.4c0-0.3-0.3-0.6-0.6-0.6h-2.9c-0.3,0-0.6,0.3-0.6,0.6v2.4h-2.4
	C-1121.6,1520.5-1121.9,1520.8-1121.9,1521.1z M-1120.6,1521.7h2.4c0.3,0,0.6-0.3,0.6-0.6v-2.4h1.7v2.4c0,0.3,0.3,0.6,0.6,0.6h2.4
	v1.7h-2.4c-0.3,0-0.6,0.3-0.6,0.6v2.4h-1.7v-2.4c0-0.3-0.3-0.6-0.6-0.6h-2.4V1521.7z M-1129.6,1526.4
	C-1129.6,1526.5-1129.6,1526.5-1129.6,1526.4C-1129.6,1526.5-1129.6,1526.5-1129.6,1526.4v8c0,0.3,0.3,0.6,0.6,0.6s0.6-0.3,0.6-0.6
	v-7.4h2.1v2.7c0,1.3,1,2.3,2.3,2.3h14.4c1.3,0,2.3-1,2.3-2.3v-14.4c0-1.3-1-2.3-2.3-2.3h-14.4c-1.3,0-2.3,1-2.3,2.3v2.7h-2.1v-7.4
	c0-0.3-0.3-0.6-0.6-0.6s-0.6,0.3-0.6,0.6v8l0,0l0,0V1526.4z M-1125.1,1515.3c0-0.6,0.5-1.1,1.1-1.1h14.4c0.6,0,1.1,0.5,1.1,1.1v14.4
	c0,0.6-0.5,1.1-1.1,1.1h-14.4c-0.6,0-1.1-0.5-1.1-1.1V1515.3z M-1128.4,1519.3h2.1v6.5h-2.1V1519.3z"/>
</svg>
