<?xml version="1.0" encoding="utf-8"?>
<!-- Generator: Adobe Illustrator 19.0.0, SVG Export Plug-In . SVG Version: 6.00 Build 0)  -->
<svg version="1.1" id="Capa_1" xmlns="http://www.w3.org/2000/svg" xmlns:xlink="http://www.w3.org/1999/xlink" x="0px" y="0px"
	 viewBox="-83 84.5 344.5 344.5" style="enable-background:new -83 84.5 344.5 344.5;" xml:space="preserve">
<style type="text/css">
	.st0{fill:#A41D21;stroke:#A41D21;stroke-width:8.157;stroke-miterlimit:10;}
	.st1{fill:#A41D21;stroke:#A41D21;stroke-width:6.1477;stroke-miterlimit:10;}
</style>
<g>
	<g>
		<path class="st0" d="M203.9,204h-23.4v-48.4c0-35.1-28.5-63.6-63.6-63.6H66.8c-35.1,0-63.6,28.5-63.6,63.6V204h-23.4
			c-6.6,0-11.9,5.3-11.9,11.9v116.4c0,48.6,39.6,88.1,88.1,88.1h66.2v-23.8H56.1c-35.5,0-64.3-28.8-64.3-64.3V227.9H192v70.3h23.8
			V216C215.8,209.4,210.5,204,203.9,204z M156.7,204H27.1v-48.4c0-21.9,17.8-39.8,39.8-39.8h50.1c21.9,0,39.8,17.8,39.8,39.8V204z"
			/>
		<g>
			<path class="st1" d="M236.1,337l-20.6-20.6c-1.8-1.8-4.7-1.8-6.5,0s-1.8,4.7,0,6.5l12.7,12.7h-62.2c-2.5,0-4.6,2.1-4.6,4.6
				s2.1,4.6,4.6,4.6h62.2l-12.7,12.7c-1.8,1.8-1.8,4.7,0,6.5c0.9,0.9,2.1,1.4,3.2,1.4c1.1,0,2.4-0.4,3.2-1.4l20.6-20.6
				C237.9,341.7,237.9,338.8,236.1,337z"/>
			<path class="st1" d="M185.8,358.8h-62.2l12.7-12.7c1.8-1.8,1.8-4.7,0-6.5s-4.7-1.8-6.5,0l-20.6,20.6c-1.8,1.8-1.8,4.7,0,6.5
				l20.6,20.6c0.9,0.9,2.1,1.4,3.2,1.4s2.4-0.4,3.2-1.4c1.8-1.8,1.8-4.7,0-6.5L123.6,368h62.2c2.5,0,4.6-2.1,4.6-4.6
				S188.3,358.8,185.8,358.8z"/>
		</g>
	</g>
</g>
</svg>
