<?xml version="1.0" encoding="utf-8"?>
<!-- Generator: Adobe Illustrator 19.0.0, SVG Export Plug-In . SVG Version: 6.00 Build 0)  -->
<svg version="1.1" id="Capa_1" xmlns="http://www.w3.org/2000/svg" xmlns:xlink="http://www.w3.org/1999/xlink" x="0px" y="0px"
	 viewBox="-695.4 756.6 25 22.6" style="enable-background:new -695.4 756.6 25 22.6;" xml:space="preserve">
<style type="text/css">
	.st0{fill:#FFB3B9;}
</style>
<path class="st0" d="M-675.1,769.9h-7.9l-1.2,1.2h2.2v7h-5.4c-1.6,0-3-1.1-3.4-2.6c0,0-0.1,0-0.1,0c-0.4,0-0.7,0-1.1-0.1
	c0.4,2.2,2.3,3.9,4.6,3.9h12.2c2.6,0,4.7-2.1,4.7-4.7C-670.4,772-672.5,769.9-675.1,769.9z M-676.2,778h-3.9c-0.3,0-0.5-0.2-0.5-0.5
	c0-0.3,0.2-0.5,0.5-0.5h3.9c0.3,0,0.5,0.2,0.5,0.5C-675.7,777.8-675.9,778-676.2,778z M-674.2,778h-0.2c-0.3,0-0.5-0.2-0.5-0.5
	c0-0.3,0.2-0.5,0.5-0.5h0.2c0.3,0,0.5,0.2,0.5,0.5C-673.7,777.8-673.9,778-674.2,778z M-678.9,758c-0.9-0.9-2-1.4-3.3-1.4
	c-1.2,0-2.4,0.5-3.3,1.4l-8.6,8.6c-0.9,0.9-1.4,2-1.4,3.3c0,1.2,0.5,2.4,1.4,3.3c0.9,0.9,2.1,1.4,3.3,1.4c1.2,0,2.4-0.5,3.3-1.4
	l8.6-8.6c0.9-0.9,1.4-2,1.4-3.3C-677.5,760-678,758.9-678.9,758z M-688.3,772.4c-1.4,1.4-3.6,1.4-5,0c-0.7-0.7-1-1.5-1-2.5
	c0-0.9,0.4-1.8,1-2.5l3.8-3.8l5,5L-688.3,772.4z M-680.5,764.5l-2.7,2.7c-0.1,0.1-0.2,0.1-0.3,0.1c-0.1,0-0.3,0-0.3-0.1
	c-0.2-0.2-0.2-0.5,0-0.7l2.7-2.7c0.2-0.2,0.5-0.2,0.7,0C-680.3,764-680.3,764.3-680.5,764.5z M-679.1,763.1l-0.1,0.1
	c-0.1,0.1-0.2,0.1-0.3,0.1c-0.1,0-0.3,0-0.3-0.1c-0.2-0.2-0.2-0.5,0-0.7l0.1-0.1c0.2-0.2,0.5-0.2,0.7,0
	C-678.9,762.6-678.9,762.9-679.1,763.1z"/>
</svg>
