<?xml version="1.0" encoding="utf-8"?>
<!-- Generator: Adobe Illustrator 19.0.0, SVG Export Plug-In . SVG Version: 6.00 Build 0)  -->
<svg version="1.1" id="Layer_1" xmlns="http://www.w3.org/2000/svg" xmlns:xlink="http://www.w3.org/1999/xlink" x="0px" y="0px"
	 viewBox="-267.5 755.5 25 25" style="enable-background:new -267.5 755.5 25 25;" xml:space="preserve">
<style type="text/css">
	.st0{fill:#FFFFFF;}
</style>
<g>
	<g>
		<path class="st0" d="M-243.7,779.5h-1.1V764c0-0.7-0.6-1.3-1.3-1.3h-2.4c-0.7,0-1.3,0.6-1.3,1.3v15.5h-2.7V771
			c0-0.7-0.6-1.3-1.3-1.3h-2.4c-0.7,0-1.3,0.6-1.3,1.3v8.5h-2.7v-4.4c0-0.7-0.6-1.3-1.3-1.3h-2.4c-0.7,0-1.3,0.6-1.3,1.3v4.4h-1.1
			c-0.3,0-0.5,0.2-0.5,0.5s0.2,0.5,0.5,0.5h22.7c0.3,0,0.5-0.2,0.5-0.5S-243.4,779.5-243.7,779.5z M-261.2,779.5h-3.1v-4.4
			c0-0.2,0.2-0.3,0.3-0.3h2.4c0.2,0,0.3,0.2,0.3,0.3V779.5L-261.2,779.5z M-253.4,779.5h-3.1V771c0-0.2,0.2-0.3,0.3-0.3h2.4
			c0.2,0,0.3,0.2,0.3,0.3V779.5z M-245.7,779.5h-3.1V764c0-0.2,0.2-0.3,0.3-0.3h2.4c0.2,0,0.3,0.2,0.3,0.3V779.5L-245.7,779.5z"/>
	</g>
</g>
<g>
	<g>
		<path class="st0" d="M-244.7,756c0-0.1,0-0.3-0.1-0.4c-0.1-0.1-0.2-0.1-0.4-0.1c0,0,0,0,0,0h-3c-0.3,0-0.5,0.2-0.5,0.5
			s0.2,0.5,0.5,0.5h1.8l-4.8,4.8l-1.8-1.8c-0.1-0.1-0.2-0.1-0.3-0.1s-0.3,0.1-0.3,0.1l-8.8,8.8c-0.2,0.2-0.2,0.5,0,0.7
			c0.1,0.1,0.2,0.1,0.3,0.1c0.1,0,0.2,0,0.3-0.1l8.4-8.4l1.8,1.8c0.2,0.2,0.5,0.2,0.7,0l5.2-5.2v1.7c0,0.3,0.2,0.5,0.5,0.5
			c0.3,0,0.5-0.2,0.5-0.5L-244.7,756C-244.7,756-244.7,756-244.7,756z"/>
	</g>
</g>
<g>
	<g>
		<circle class="st0" cx="-263.8" cy="770.3" r="0.5"/>
	</g>
</g>
</svg>
