<?xml version="1.0" encoding="utf-8"?>
<!-- Generator: Adobe Illustrator 19.0.0, SVG Export Plug-In . SVG Version: 6.00 Build 0)  -->
<svg version="1.1" id="Capa_1" xmlns="http://www.w3.org/2000/svg" xmlns:xlink="http://www.w3.org/1999/xlink" x="0px" y="0px"
	 viewBox="-511 512 512 512" style="enable-background:new -511 512 512 512;" xml:space="preserve">
<style type="text/css">
	.st0{fill:#A41D22;}
</style>
<g>
	<g>
		<path class="st0" d="M-131,645.5l-112-128c-3-3.5-7.4-5.5-12-5.5s-9,2-12,5.5l-112,128c-4.1,4.7-5.2,11.4-2.5,17.2
			c2.6,5.7,8.3,9.4,14.6,9.4h64v208c0,8.8,7.2,16,16,16h64c8.8,0,16-7.2,16-16V672h64c6.3,0,12-3.6,14.6-9.4
			C-125.8,656.9-126.8,650.2-131,645.5z"/>
	</g>
</g>
<g>
	<g>
		<path class="st0" d="M-79,877.4v69.1c0,7.4-6,13.4-13.4,13.4h-325.1c-7.4,0-13.4-6-13.4-13.4v-69.1c0-7.4-6-13.4-13.4-13.4h-37.1
			c-7.4,0-13.4,6-13.4,13.4V992c0,17.7,14.3,32,32,32h416c17.7,0,32-14.3,32-32V877.4c0-7.4-6-13.4-13.4-13.4h-37.1
			C-73,864-79,870-79,877.4z"/>
	</g>
</g>
</svg>
