<?xml version="1.0" encoding="utf-8"?>
<!-- Generator: Adobe Illustrator 19.0.0, SVG Export Plug-In . SVG Version: 6.00 Build 0)  -->
<svg version="1.1" id="Capa_1" xmlns="http://www.w3.org/2000/svg" xmlns:xlink="http://www.w3.org/1999/xlink" x="0px" y="0px"
	 viewBox="0 0 512 512" style="enable-background:new 0 0 512 512;" xml:space="preserve">
<style type="text/css">
	.st0{fill:#A41D21;stroke:#A41D21;stroke-width:14.6918;stroke-miterlimit:10;}
	.st1{fill:#A41D21;stroke:#A41D21;stroke-width:7.2315;stroke-miterlimit:10;}
</style>
<g>
	<g>
		<path class="st0" d="M427.1,326.9c-26.4-26.4-57.7-45.9-92-57.7c36.7-25.3,60.7-67.5,60.7-115.3C395.9,76.8,333.1,14,256,14
			S116.1,76.8,116.1,153.9c0,47.8,24.1,90,60.7,115.3c-34.2,11.8-65.6,31.3-92,57.7C39.2,372.6,14,433.4,14,498h37.8
			c0-112.6,91.6-204.2,204.2-204.2S460.2,385.4,460.2,498H498C498,433.4,472.8,372.6,427.1,326.9z M256,256
			c-56.3,0-102.1-45.8-102.1-102.1S199.7,51.8,256,51.8s102.1,45.8,102.1,102.1S312.3,256,256,256z"/>
	</g>
</g>
<path class="st1" d="M203.7,436.3H232v28.3c0,11.7,9.4,21.1,21.1,21.1s21.1-9.4,21.1-21.1v-28.3h28.3c11.7,0,21.1-9.4,21.1-21.1
	s-9.4-21.1-21.1-21.1h-28.3v-28.3c0-11.7-9.4-21.1-21.1-21.1c-11.7,0-21.1,9.4-21.1,21.1v28.3h-28.3c-11.7,0-21.1,9.4-21.1,21.1
	S192,436.3,203.7,436.3L203.7,436.3z"/>
</svg>
