<?xml version="1.0" encoding="utf-8"?>
<!-- Generator: Adobe Illustrator 19.0.0, SVG Export Plug-In . SVG Version: 6.00 Build 0)  -->
<svg version="1.1" id="Capa_1" xmlns="http://www.w3.org/2000/svg" xmlns:xlink="http://www.w3.org/1999/xlink" x="0px" y="0px"
	 viewBox="-280 743 50 50" style="enable-background:new -280 743 50 50;" xml:space="preserve">
<style type="text/css">
	.st0{fill:#A41D22;}
</style>
<g>
	<g>
		<path class="st0" d="M-230.3,767c-0.4-0.6-11.1-15-24.7-15c-13.6,0-24.2,14.4-24.7,15c-0.4,0.6-0.4,1.4,0,1.9
			c0.4,0.6,11.1,15,24.7,15c13.6,0,24.2-14.4,24.7-15C-229.9,768.4-229.9,767.6-230.3,767z M-255,780.6c-10,0-18.7-9.5-21.3-12.6
			c2.6-3.1,11.2-12.6,21.3-12.6c10,0,18.7,9.5,21.3,12.6C-236.3,771.1-245,780.6-255,780.6z"/>
	</g>
</g>
<g>
	<g>
		<path class="st0" d="M-253.3,758.2c-6.8-1.1-12.5,4.7-11.4,11.4c0.7,4.1,4,7.4,8.1,8.1c6.8,1.1,12.5-4.7,11.4-11.4
			C-245.9,762.2-249.2,758.9-253.3,758.2z M-253.7,774.5c-4.6,0.9-8.6-3.1-7.8-7.8c0.5-2.6,2.6-4.7,5.2-5.2c4.6-0.9,8.6,3.1,7.8,7.8
			C-249,771.9-251.1,774-253.7,774.5z"/>
	</g>
</g>
</svg>
