<?xml version="1.0" encoding="utf-8"?>
<!-- Generator: Adobe Illustrator 19.0.0, SVG Export Plug-In . SVG Version: 6.00 Build 0)  -->
<svg version="1.1" id="Layer_1" xmlns="http://www.w3.org/2000/svg" xmlns:xlink="http://www.w3.org/1999/xlink" x="0px" y="0px"
	 viewBox="-276.5 754.8 25 25" style="enable-background:new -276.5 754.8 25 25;" xml:space="preserve">
<style type="text/css">
	.st0{fill:#FFFFFF;}
</style>
<path class="st0" d="M-267.1,756.9v2.1c0,0.3,0.2,0.5,0.5,0.5h11.5c0.3,0,0.5,0.2,0.5,0.5v14.6c0,0.3-0.2,0.5-0.5,0.5h-11.5
	c-0.3,0-0.5,0.2-0.5,0.5v2.1c0,0.3,0.2,0.5,0.5,0.5h14.6c0.3,0,0.5-0.2,0.5-0.5v-20.9c0-0.3-0.2-0.5-0.5-0.5h-14.6
	C-266.9,756.4-267.1,756.6-267.1,756.9z M-264,763.6v1.7c0,0.3-0.2,0.5-0.5,0.5H-276c-0.3,0-0.5,0.2-0.5,0.5v2.1
	c0,0.3,0.2,0.5,0.5,0.5h11.5c0.3,0,0.5,0.2,0.5,0.5v1.7c0,0.4,0.5,0.6,0.8,0.4l4.9-3.7c0.3-0.2,0.3-0.6,0-0.8l-4.9-3.7
	C-263.5,763-264,763.2-264,763.6z"/>
</svg>
