<?xml version="1.0" encoding="utf-8"?>
<!-- Generator: Adobe Illustrator 19.0.0, SVG Export Plug-In . SVG Version: 6.00 Build 0)  -->
<svg version="1.1" id="Capa_1" xmlns="http://www.w3.org/2000/svg" xmlns:xlink="http://www.w3.org/1999/xlink" x="0px" y="0px"
	 viewBox="-683.3 758 20 20" style="enable-background:new -683.3 758 20 20;" xml:space="preserve">
<style type="text/css">
	.st0{fill:#A41D22;}
</style>
<g>
	<g>
		<path class="st0" d="M-674.5,774.3h-4.6c-0.4,0-0.7-0.3-0.7-0.7v-4.6c0-0.4,0.3-0.7,0.7-0.7h4.6c0.4,0,0.7,0.3,0.7,0.7v4.6
			C-673.8,774-674.1,774.3-674.5,774.3z M-678.4,773h3.3v-3.3h-3.3V773z"/>
	</g>
	<g>
		<path class="st0" d="M-667.5,774.3h-4.6c-0.4,0-0.7-0.3-0.7-0.7v-4.6c0-0.4,0.3-0.7,0.7-0.7h4.6c0.4,0,0.7,0.3,0.7,0.7v4.6
			C-666.8,774-667.1,774.3-667.5,774.3z M-671.4,773h3.3v-3.3h-3.3V773z"/>
	</g>
	<g>
		<path class="st0" d="M-674.5,767.5h-4.6c-0.4,0-0.7-0.3-0.7-0.7v-4.6c0-0.4,0.3-0.7,0.7-0.7h4.6c0.4,0,0.7,0.3,0.7,0.7v4.6
			C-673.8,767.2-674.1,767.5-674.5,767.5z M-678.4,766.2h3.3v-3.3h-3.3V766.2z"/>
	</g>
	<g>
		<path class="st0" d="M-667.5,767.5h-4.6c-0.4,0-0.7-0.3-0.7-0.7v-4.6c0-0.4,0.3-0.7,0.7-0.7h4.6c0.4,0,0.7,0.3,0.7,0.7v4.6
			C-666.8,767.2-667.1,767.5-667.5,767.5z M-671.4,766.2h3.3v-3.3h-3.3V766.2z"/>
	</g>
</g>
<g>
	<path class="st0" d="M-664.2,778h-18c-0.4,0-0.8-0.3-0.8-0.8v-18.5c0-0.4,0.3-0.8,0.8-0.8h18c0.4,0,0.8,0.3,0.8,0.8v18.5
		C-663.5,777.6-663.8,778-664.2,778z M-681.5,776.4h16.5v-17h-16.5V776.4z"/>
</g>
</svg>
